# xmcd CD database file
#
# Track frame offsets:
#	150
#	14132
#	29212
#	45197
#	66087
#	76875
#	88682
#	104460
#	120240
#	133962
#
# Disc length: 2028 seconds
#
# Revision: 0
# Processed by: cddbd v1.4PL0 Copyright (c) Steve Scherf et al.
# Submitted via: CDex 1.50
#
DISCID=8307ea0a
DTITLE=Pekka Kokkonen - Blues is all
DYEAR=1900
DGENRE=Blues
TTITLE0=Evil Women
TTITLE1=Have Mercy Baby
TTITLE2=Honey Hush
TTITLE3=Same Old Blues
TTITLE4=The Stumble
TTITLE5=T-Bone Boogie
TTITLE6=Feel So Bad
TTITLE7=Some Other Day, Some Other Time
TTITLE8=Why Me Baby (Keeps On Bothering)
TTITLE9=Blues Is Allright
EXTD=
EXTT0=
EXTT1=
EXTT2=
EXTT3=
EXTT4=
EXTT5=
EXTT6=
EXTT7=
EXTT8=
EXTT9=
PLAYORDER=
